<svg xmlns="http://www.w3.org/2000/svg" width="1200" height="52" viewBox="0 0 1200 52" fill="none" role="img" aria-labelledby="title desc"><title id="title">Lab wire</title><desc id="desc">News ticker. Shipped: cascade-gnn v0.3 with 14 tests passing in CI. On the bench: an OT / SCADA anomaly-detection dashboard. Next: cascade-gnn on the official PowerGraph data. Open: summer 2027 internship, 1–2 months. Cooking: something new is on the bench; follow to catch it.</desc><defs><style>
text{font-family:Segoe UI,Arial,sans-serif;fill:#f4f0e5}
.serif{font-family:Georgia,Times New Roman,serif;letter-spacing:-1.2px}
.mono{font-family:Consolas,Liberation Mono,Menlo,monospace;letter-spacing:1.4px}
.tl{font-family:Consolas,Liberation Mono,Menlo,monospace;letter-spacing:0}
.bold{font-weight:650;letter-spacing:-.4px}
.pulse{animation:pulse 2.4s ease-in-out infinite}@keyframes pulse{0%,100%{opacity:.35}50%{opacity:1}}
.ring{animation:ring 2.4s ease-out infinite;transform-box:fill-box;transform-origin:center}@keyframes ring{0%{transform:scale(1);opacity:.7}100%{transform:scale(2.6);opacity:0}}
.tick{animation:tick 65.92s linear infinite}@keyframes tick{to{transform:translateX(-2504.9px)}}
@media(prefers-reduced-motion:reduce){.tick,.pulse,.ring{animation:none!important}}
</style><clipPath id="wire"><rect x="162" y="1" width="1036" height="50"/></clipPath><linearGradient id="fl" x1="0" x2="1"><stop offset="0" stop-color="#181e1c"/><stop offset="1" stop-color="#181e1c" stop-opacity="0"/></linearGradient><linearGradient id="fr" x1="0" x2="1"><stop offset="0" stop-color="#181e1c" stop-opacity="0"/><stop offset="1" stop-color="#181e1c"/></linearGradient><clipPath id="bounds"><rect x="1" y="1" width="1198" height="50" rx="14" fill="white"/></clipPath></defs><rect x="1" y="1" width="1198" height="50" rx="14" fill="#181e1c" stroke="#3b4a42"/><g clip-path="url(#bounds)">
<g clip-path="url(#wire)"><g class="tick"><g transform="translate(184 0)"><rect x="0" y="15" width="76.7" height="22" rx="11" stroke="#b7cd91" stroke-opacity=".75"/><text x="10" y="30" font-size="12" class="tl" style="fill:#b7cd91" textLength="56.7" lengthAdjust="spacing">SHIPPED</text><text x="88.7" y="31" font-size="14" class="tl" textLength="348.5" lengthAdjust="spacing">cascade-gnn v0.3 · 14 tests passing in CI</text><rect x="465.2" y="23" width="6" height="6" fill="#48bfc4" opacity=".6" transform="rotate(45 468.2 26)"/><rect x="499.2" y="15" width="117.2" height="22" rx="11" stroke="#e0a84a" stroke-opacity=".75"/><text x="509.2" y="30" font-size="12" class="tl" style="fill:#e0a84a" textLength="97.2" lengthAdjust="spacing">ON THE BENCH</text><text x="628.4" y="31" font-size="14" class="tl" textLength="323" lengthAdjust="spacing">OT / SCADA anomaly-detection dashboard</text><rect x="979.4" y="23" width="6" height="6" fill="#48bfc4" opacity=".6" transform="rotate(45 982.4 26)"/><rect x="1013.4" y="15" width="52.4" height="22" rx="11" stroke="#48bfc4" stroke-opacity=".75"/><text x="1023.4" y="30" font-size="12" class="tl" style="fill:#48bfc4" textLength="32.4" lengthAdjust="spacing">NEXT</text><text x="1077.8" y="31" font-size="14" class="tl" textLength="365.5" lengthAdjust="spacing">cascade-gnn on the official PowerGraph data</text><rect x="1471.3" y="23" width="6" height="6" fill="#48bfc4" opacity=".6" transform="rotate(45 1474.3 26)"/><rect x="1505.3" y="15" width="52.4" height="22" rx="11" stroke="#b7cd91" stroke-opacity=".75"/><text x="1515.3" y="30" font-size="12" class="tl" style="fill:#b7cd91" textLength="32.4" lengthAdjust="spacing">OPEN</text><text x="1569.7" y="31" font-size="14" class="tl" textLength="297.5" lengthAdjust="spacing">summer 2027 internship · 1–2 months</text><rect x="1895.2" y="23" width="6" height="6" fill="#48bfc4" opacity=".6" transform="rotate(45 1898.2 26)"/><rect x="1929.2" y="15" width="76.7" height="22" rx="11" stroke="#e0a84a" stroke-opacity=".75"/><text x="1939.2" y="30" font-size="12" class="tl" style="fill:#e0a84a" textLength="56.7" lengthAdjust="spacing">COOKING</text><text x="2017.9" y="31" font-size="14" class="tl" textLength="425" lengthAdjust="spacing">something new is on the bench · follow to catch it</text><rect x="2470.9" y="23" width="6" height="6" fill="#48bfc4" opacity=".6" transform="rotate(45 2473.9 26)"/></g><g transform="translate(2688.9 0)"><rect x="0" y="15" width="76.7" height="22" rx="11" stroke="#b7cd91" stroke-opacity=".75"/><text x="10" y="30" font-size="12" class="tl" style="fill:#b7cd91" textLength="56.7" lengthAdjust="spacing">SHIPPED</text><text x="88.7" y="31" font-size="14" class="tl" textLength="348.5" lengthAdjust="spacing">cascade-gnn v0.3 · 14 tests passing in CI</text><rect x="465.2" y="23" width="6" height="6" fill="#48bfc4" opacity=".6" transform="rotate(45 468.2 26)"/><rect x="499.2" y="15" width="117.2" height="22" rx="11" stroke="#e0a84a" stroke-opacity=".75"/><text x="509.2" y="30" font-size="12" class="tl" style="fill:#e0a84a" textLength="97.2" lengthAdjust="spacing">ON THE BENCH</text><text x="628.4" y="31" font-size="14" class="tl" textLength="323" lengthAdjust="spacing">OT / SCADA anomaly-detection dashboard</text><rect x="979.4" y="23" width="6" height="6" fill="#48bfc4" opacity=".6" transform="rotate(45 982.4 26)"/><rect x="1013.4" y="15" width="52.4" height="22" rx="11" stroke="#48bfc4" stroke-opacity=".75"/><text x="1023.4" y="30" font-size="12" class="tl" style="fill:#48bfc4" textLength="32.4" lengthAdjust="spacing">NEXT</text><text x="1077.8" y="31" font-size="14" class="tl" textLength="365.5" lengthAdjust="spacing">cascade-gnn on the official PowerGraph data</text><rect x="1471.3" y="23" width="6" height="6" fill="#48bfc4" opacity=".6" transform="rotate(45 1474.3 26)"/><rect x="1505.3" y="15" width="52.4" height="22" rx="11" stroke="#b7cd91" stroke-opacity=".75"/><text x="1515.3" y="30" font-size="12" class="tl" style="fill:#b7cd91" textLength="32.4" lengthAdjust="spacing">OPEN</text><text x="1569.7" y="31" font-size="14" class="tl" textLength="297.5" lengthAdjust="spacing">summer 2027 internship · 1–2 months</text><rect x="1895.2" y="23" width="6" height="6" fill="#48bfc4" opacity=".6" transform="rotate(45 1898.2 26)"/><rect x="1929.2" y="15" width="76.7" height="22" rx="11" stroke="#e0a84a" stroke-opacity=".75"/><text x="1939.2" y="30" font-size="12" class="tl" style="fill:#e0a84a" textLength="56.7" lengthAdjust="spacing">COOKING</text><text x="2017.9" y="31" font-size="14" class="tl" textLength="425" lengthAdjust="spacing">something new is on the bench · follow to catch it</text><rect x="2470.9" y="23" width="6" height="6" fill="#48bfc4" opacity=".6" transform="rotate(45 2473.9 26)"/></g></g></g>
<rect x="162" y="1" width="48" height="50" fill="url(#fl)"/><rect x="1150" y="1" width="48" height="50" fill="url(#fr)"/>
<rect x="1" y="1" width="160" height="50" fill="#202a25"/><line x1="161" y1="1" x2="161" y2="51" stroke="#3b4a42"/>
<circle cx="26" cy="26" r="5" fill="#e0a84a" class="ring"/><circle cx="26" cy="26" r="5" fill="#e0a84a" class="pulse"/><text x="42" y="31" font-size="13" class="mono" style="fill:#f4f0e5">LAB WIRE</text>
</g></svg>
